<svg xmlns="http://www.w3.org/2000/svg" xmlns:xlink="http://www.w3.org/1999/xlink" viewBox="0,0,256,256" width="48px" height="48px"><g fill="#dddddd" fill-rule="nonzero" stroke="none" stroke-width="1" stroke-linecap="butt" stroke-linejoin="miter" stroke-miterlimit="10" stroke-dasharray="" stroke-dashoffset="0" font-family="none" font-weight="none" font-size="none" text-anchor="none" style="mix-blend-mode: normal"><path d="M0,256v-256h256v256z" id="bgRectangle"></path></g><g fill="none" fill-rule="nonzero" stroke="none" stroke-width="none" stroke-linecap="butt" stroke-linejoin="none" stroke-miterlimit="10" stroke-dasharray="" stroke-dashoffset="0" font-family="none" font-weight="none" font-size="none" text-anchor="none" style="mix-blend-mode: normal"><path transform="scale(4,4)" d="M32,54c-12.131,0 -22,-9.869 -22,-22c0,-12.131 9.869,-22 22,-22c12.131,0 22,9.869 22,22c0,12.131 -9.869,22 -22,22z" id="strokeMainSVG" fill="#dddddd" stroke="#dddddd" stroke-width="8" stroke-linejoin="round"></path><g transform="scale(4,4)" stroke="none" stroke-width="1" stroke-linejoin="miter"><path d="M30.413,40c-0.53,0 -1.039,-0.211 -1.414,-0.586l-6.517,-6.517c-0.781,-0.781 -0.781,-2.047 0,-2.828c0.781,-0.781 2.047,-0.781 2.828,0l5.103,5.103l9.121,-9.121c0.781,-0.781 2.047,-0.781 2.828,0c0.781,0.781 0.781,2.047 0,2.828l-10.535,10.535c-0.375,0.375 -0.884,0.586 -1.414,0.586z" fill="#000000"></path><path d="M32,54c-12.131,0 -22,-9.869 -22,-22c0,-12.131 9.869,-22 22,-22c12.131,0 22,9.869 22,22c0,12.131 -9.869,22 -22,22zM32,14c-9.925,0 -18,8.075 -18,18c0,9.925 8.075,18 18,18c9.925,0 18,-8.075 18,-18c0,-9.925 -8.075,-18 -18,-18z" fill="#060000"></path></g></g></svg>